<svg xmlns="http://www.w3.org/2000/svg" viewBox="0, 0, 300, 300" style=""><rect fill="#CCCCCC" x="0" y="0" width="300" height="300"></rect><path d="M130.4,563.2 L130.4,242.4 L0,242.4 L0,127.2 C80.8,128.8 160.8,98.4 165.6,6.4 L296.8,6.4 L296.8,563.2 L130.4,563.2 Z M251.6,240.8 L101.2,240.8 C92.4,88 187.6,0 337.2,0 C472.4,0 564.4,56.8 564.4,175.2 C564.4,317.6 425.2,362.4 320.4,426.4 L320.4,427.2 L572.4,427.2 L572.4,563.2 L90,563.2 C86.8,509.6 102.8,463.2 130,425.6 C176.4,360.8 256.4,318.4 327.6,275.2 C356.4,257.6 402.8,235.2 402.8,194.4 C402.8,144 373.2,126.4 335.6,126.4 C271.6,126.4 250,172.8 251.6,240.8 Z" fill="#333333" opacity="0.996201938253052" transform="translate(10, 0) rotate(360, 286.5, 282)"></path><circle fill="#E62B1E" opacity="1" style="mix-blend-mode:darken" cx="300" cy="236.60254037844385" r="163.33333333333331"></circle><path d="M236.084921,-7.10542736e-15 L300,-7.10542736e-15 L300,300 L62.6762447,300 C62.7845725,299.86576 62.892491,299.730474 63,299.594144 C160.087797,176.479046 253.249443,82.9111883 236.084921,-6.605827e-15 Z M0.641856935,300 L0,300 L0,299.594144 C0.214361822,299.730474 0.428314205,299.86576 0.641857151,300 Z" transform="rotate(90, 150, 150)" fill="#EEEEEE"></path></svg>
