<svg xmlns="http://www.w3.org/2000/svg" viewBox="0, 0, 300, 300" style=""><rect fill="#CCCCCC" x="0" y="0" width="300" height="300"></rect><path d="M159.195245,393.6 C159.195245,441.6 207.995245,455.2 247.995245,455.2 C287.195245,455.2 337.595245,441.6 337.595245,393.6 C337.595245,340 297.595245,321.6 249.595245,321.6 C203.195245,321.6 159.195245,337.6 159.195245,393.6 Z M25.5952454,153.6 C25.5952454,31.2 155.995245,0.8 247.995245,0.8 C400.795245,0.8 473.595245,72.8 473.595245,153.6 C473.595245,211.2 439.195245,258.4 386.395245,270.4 L386.395245,272 C447.995245,278.4 495.995245,325.6 495.995245,394.4 C495.995245,526.4 360.795245,570.4 247.995245,570.4 C127.995245,570.4 0.795245443,529.6 0.795245443,394.4 C0.795245443,299.2 71.9952454,279.2 111.995245,272 L111.995245,270.4 C52.7952454,254.4 25.5952454,213.6 25.5952454,153.6 Z M167.995245,169.6 C167.995245,213.6 208.795245,228 247.195245,228 C286.395245,228 331.195245,216 331.195245,169.6 C331.195245,116.8 289.595245,107.2 247.995245,107.2 C206.395245,107.2 167.995245,119.2 167.995245,169.6 Z" fill="#FFFFFF" opacity="0.9665063509461097" transform="translate(0, 0) rotate(240, 248, 285.5)"></path><circle fill="#E62B1E" opacity="1" style="mix-blend-mode:darken" cx="150" cy="0" r="156"></circle><path d="M150.248914,0 L300,0 L300,300 L149.748322,300 C149.832494,299.833893 149.916387,299.667226 150,299.5 C187.416851,224.666298 187.499816,75.1648246 150.248894,-4.02379731e-07 Z M0.751677863,300 L0,300 L0,299.5 C0.25083894,299.667226 0.501398235,299.833893 0.751677885,300 Z" transform="rotate(0, 150, 150)" fill="#333333"></path></svg>
