<svg xmlns="http://www.w3.org/2000/svg" viewBox="0, 0, 300, 300" style=""><rect fill="#CCCCCC" x="0" y="0" width="300" height="300"></rect><path d="M167.6,192.8 L17.2,192.8 C18,127.2 44.4,79.2 86.8,47.2 C129.2,16 186.8,0.8 249.2,0.8 C410.8,0.8 464.4,96.8 464.4,144 C464.4,260.8 390.8,260.8 390.8,263.2 L390.8,264.8 C390.8,271.2 482,271.2 482,395.2 C482,463.2 430.8,570.4 248.4,570.4 C-2,570.4 -2.8,394.4 1.2,352.8 L153.2,352.8 C152.4,382.4 159.6,404.8 174.8,419.2 C190,437.6 213.2,444 241.2,444 C286.8,444 315.6,427.2 315.6,381.6 C315.6,332.8 278,324 241.2,324 C218,324 206.8,326.4 194.8,328 L194.8,219.2 C206.8,220 219.6,222.4 241.2,222.4 C274.8,222.4 317.2,215.2 317.2,172 C317.2,136.8 277.2,123.2 244.4,123.2 C201.2,123.2 166,146.4 167.6,192.8 Z" fill="#FFFFFF" opacity="0.9665063509461097" transform="translate(0, 0) rotate(90, 241, 285.5)"></path><circle fill="#E62B1E" opacity="1" style="mix-blend-mode:darken" cx="63.397459621556024" cy="0" r="154.16666666666669"></circle><path d="M 0 0 L 300 0 L 0 0 Z M 300 63 L 300 300 L 0 300 L 0 236 C 70.44 250.903 176.671 160.36 300 63 Z" transform="rotate(270, 150, 150)" fill="#EEEEEE"></path></svg>
