<svg xmlns="http://www.w3.org/2000/svg" viewBox="0, 0, 300, 300" style=""><rect fill="#CCCCCC" x="0" y="0" width="300" height="300"></rect><path d="M162.6,241.6 L12.2,241.6 C3.4,88.8 98.6,0.8 248.2,0.8 C383.4,0.8 475.4,57.6 475.4,176 C475.4,318.4 336.2,363.2 231.4,427.2 L231.4,428 L483.4,428 L483.4,564 L1,564 C-2.2,510.4 13.8,464 41,426.4 C87.4,361.6 167.4,319.2 238.6,276 C267.4,258.4 313.8,236 313.8,195.2 C313.8,144.8 284.2,127.2 246.6,127.2 C182.6,127.2 161,173.6 162.6,241.6 Z" fill="#333333" opacity="0.9415111107797445" transform="translate(0, 0) rotate(60, 242, 282)"></path><circle fill="#E62B1E" opacity="1" style="mix-blend-mode:darken" cx="236.6025403784439" cy="300" r="99.16666666666667"></circle><path d="M 0 0 L 300 0 L 0 0 Z M 300 63 L 300 300 L 0 300 L 0 236 C 70.44 250.903 176.671 160.36 300 63 Z" transform="rotate(90, 150, 150)" fill="#333333"></path></svg>
