<svg xmlns="http://www.w3.org/2000/svg" viewBox="0, 0, 300, 300" style=""><rect fill="#CCCCCC" x="0" y="0" width="300" height="300"></rect><path d="M130.595245,564 L130.595245,243.2 L0.195245443,243.2 L0.195245443,128 C80.9952454,129.6 160.995245,99.2 165.795245,7.2 L296.995245,7.2 L296.995245,564 L130.595245,564 Z M244.595245,285.6 C244.595245,344 247.795245,448 328.595245,448 C410.195245,448 414.195245,344.8 414.195245,285.6 C414.195245,228 410.195245,123.2 330.195245,123.2 C247.795245,123.2 244.595245,225.6 244.595245,285.6 Z M92.5952454,285.6 C92.5952454,70.4 228.595245,0.8 328.595245,0.8 C430.195245,0.8 566.195245,70.4 566.195245,285.6 C566.195245,500.8 430.195245,570.4 329.395245,570.4 C228.595245,570.4 92.5952454,500.8 92.5952454,285.6 Z" fill="#333333" opacity="0.9415111107797445" transform="translate(0, 0) rotate(300, 283.5, 285.5)"></path><circle fill="#E62B1E" opacity="1" style="mix-blend-mode:darken" cx="0" cy="236.60254037844385" r="192.66666666666669"></circle><path d="M 0 0 L 300 0 L 0 0 Z M 300 63 L 300 300 L 0 300 L 0 236 C 70.44 250.903 176.671 160.36 300 63 Z" transform="rotate(180, 150, 150)" fill="#EEEEEE"></path></svg>
