<svg xmlns="http://www.w3.org/2000/svg" viewBox="0, 0, 300, 300" style=""><rect fill="#EEEEEE" x="0" y="0" width="300" height="300"></rect><path d="M229.595245,127.2 C187.195245,127.2 147.995245,160 147.995245,204 C147.995245,247.2 186.395245,279.2 227.995245,279.2 C271.195245,279.2 307.995245,249.6 307.995245,204.8 C307.995245,160.8 273.595245,127.2 229.595245,127.2 Z M6.39524544,417.6 L152.795245,417.6 C155.995245,429.6 165.595245,440.8 177.595245,447.2 C190.395245,453.6 204.795245,455.2 215.995245,455.2 C287.995245,455.2 307.195245,388.8 315.995245,343.2 L314.395245,341.6 C279.195245,372 236.795245,385.6 189.595245,385.6 C80.7952454,385.6 0.795245443,323.2 0.795245443,208.8 C0.795245443,73.6 108.795245,0.8 235.195245,0.8 C398.395245,0.8 469.595245,125.6 469.595245,265.6 C469.595245,442.4 386.395245,570.4 215.995245,570.4 C112.795245,570.4 23.9952454,527.2 6.39524544,417.6 Z" fill="#333333" opacity="0.9106969024216349" transform="translate(0, 0) rotate(270, 235, 285.5)"></path><circle fill="#E62B1E" opacity="1" style="mix-blend-mode:darken" cx="300" cy="150" r="183.5"></circle><path d="M150.248914,0 L300,0 L300,300 L149.748322,300 C149.832494,299.833893 149.916387,299.667226 150,299.5 C187.416851,224.666298 187.499816,75.1648246 150.248894,-4.02379731e-07 Z M0.751677863,300 L0,300 L0,299.5 C0.25083894,299.667226 0.501398235,299.833893 0.751677885,300 Z" transform="rotate(90, 150, 150)" fill="#CCCCCC"></path></svg>
