<svg xmlns="http://www.w3.org/2000/svg" viewBox="0, 0, 300, 300" style=""><rect fill="#CCCCCC" x="0" y="0" width="300" height="300"></rect><path d="M131.2,557 L131.2,236.2 L0.8,236.2 L0.8,121 C81.6,122.6 161.6,92.2 166.4,0.2 L297.6,0.2 L297.6,557 L131.2,557 Z M286,557 L286,236.2 L155.6,236.2 L155.6,121 C236.4,122.6 316.4,92.2 321.2,0.2 L452.4,0.2 L452.4,557 L286,557 Z" fill="#FFFFFF" opacity="0.9106969024216349" transform="translate(0, 0) rotate(330, 226.5, 278.5)"></path><circle fill="#E62B1E" opacity="1" style="mix-blend-mode:darken" cx="63.397459621556024" cy="0" r="198.16666666666666"></circle><path d="M 0 0 L 300 0 L 0 0 Z M 300 63 L 300 300 L 0 300 L 0 236 C 70.44 250.903 176.671 160.36 300 63 Z" transform="rotate(270, 150, 150)" fill="#333333"></path></svg>
