<svg xmlns="http://www.w3.org/2000/svg" viewBox="0, 0, 300, 300" style=""><rect fill="#EEEEEE" x="0" y="0" width="300" height="300"></rect><path d="M237.995245,293.6 C194.795245,293.6 161.995245,325.6 161.995245,367.2 C161.995245,411.2 193.995245,444 237.995245,444 C285.995245,444 319.595245,409.6 319.595245,367.2 C319.595245,328 287.595245,293.6 237.995245,293.6 Z M461.195245,156 L314.795245,156 C311.595245,145.6 303.595245,134.4 291.595245,125.6 C280.395245,118.4 265.995245,116 248.395245,116 C187.595245,116 157.195245,175.2 151.595245,230.4 C189.195245,196 229.995245,187.2 280.395245,187.2 C387.595245,187.2 466.795245,256 466.795245,364.8 C466.795245,501.6 370.795245,570.4 237.995245,570.4 C69.1952454,570.4 0.395245443,442.4 0.395245443,305.6 C0.395245443,130.4 81.1952454,0.8 251.595245,0.8 C371.595245,0.8 443.595245,47.2 461.195245,156 Z" fill="#333333" opacity="0.875" transform="translate(20, 0) rotate(180, 233.5, 285.5)"></path><circle fill="#E62B1E" opacity="1" style="mix-blend-mode:darken" cx="0" cy="150.00000000000003" r="128.5"></circle><path d="M150.248914,0 L300,0 L300,300 L149.748322,300 C149.832494,299.833893 149.916387,299.667226 150,299.5 C187.416851,224.666298 187.499816,75.1648246 150.248894,-4.02379731e-07 Z M0.751677863,300 L0,300 L0,299.5 C0.25083894,299.667226 0.501398235,299.833893 0.751677885,300 Z" transform="rotate(270, 150, 150)" fill="#CCCCCC"></path></svg>
