<svg xmlns="http://www.w3.org/2000/svg" viewBox="0, 0, 300, 300" style=""><rect fill="#CCCCCC" x="0" y="0" width="300" height="300"></rect><path d="M229.595245,127.2 C187.195245,127.2 147.995245,160 147.995245,204 C147.995245,247.2 186.395245,279.2 227.995245,279.2 C271.195245,279.2 307.995245,249.6 307.995245,204.8 C307.995245,160.8 273.595245,127.2 229.595245,127.2 Z M6.39524544,417.6 L152.795245,417.6 C155.995245,429.6 165.595245,440.8 177.595245,447.2 C190.395245,453.6 204.795245,455.2 215.995245,455.2 C287.995245,455.2 307.195245,388.8 315.995245,343.2 L314.395245,341.6 C279.195245,372 236.795245,385.6 189.595245,385.6 C80.7952454,385.6 0.795245443,323.2 0.795245443,208.8 C0.795245443,73.6 108.795245,0.8 235.195245,0.8 C398.395245,0.8 469.595245,125.6 469.595245,265.6 C469.595245,442.4 386.395245,570.4 215.995245,570.4 C112.795245,570.4 23.9952454,527.2 6.39524544,417.6 Z" fill="#333333" opacity="0.875" transform="translate(0, 0) rotate(270, 235, 285.5)"></path><circle fill="#E62B1E" opacity="1" style="mix-blend-mode:darken" cx="63.39745962155618" cy="300" r="168.83333333333331"></circle><path d="M236.084921,-7.10542736e-15 L300,-7.10542736e-15 L300,300 L62.6762447,300 C62.7845725,299.86576 62.892491,299.730474 63,299.594144 C160.087797,176.479046 253.249443,82.9111883 236.084921,-6.605827e-15 Z M0.641856935,300 L0,300 L0,299.594144 C0.214361822,299.730474 0.428314205,299.86576 0.641857151,300 Z" transform="rotate(180, 150, 150)" fill="#EEEEEE"></path></svg>
