<svg xmlns="http://www.w3.org/2000/svg" viewBox="0, 0, 300, 300" style=""><rect fill="#EEEEEE" x="0" y="0" width="300" height="300"></rect><path d="M130.595245,564 L130.595245,243.2 L0.195245443,243.2 L0.195245443,128 C80.9952454,129.6 160.995245,99.2 165.795245,7.2 L296.995245,7.2 L296.995245,564 L130.595245,564 Z M244.595245,285.6 C244.595245,344 247.795245,448 328.595245,448 C410.195245,448 414.195245,344.8 414.195245,285.6 C414.195245,228 410.195245,123.2 330.195245,123.2 C247.795245,123.2 244.595245,225.6 244.595245,285.6 Z M92.5952454,285.6 C92.5952454,70.4 228.595245,0.8 328.595245,0.8 C430.195245,0.8 566.195245,70.4 566.195245,285.6 C566.195245,500.8 430.195245,570.4 329.395245,570.4 C228.595245,570.4 92.5952454,500.8 92.5952454,285.6 Z" fill="#FFFFFF" opacity="0.75" transform="translate(0, 0) rotate(300, 283.5, 285.5)"></path><circle fill="#E62B1E" opacity="1" style="mix-blend-mode:darken" cx="300" cy="236.60254037844385" r="141.33333333333334"></circle><path d="M236.084921,-7.10542736e-15 L300,-7.10542736e-15 L300,300 L62.6762447,300 C62.7845725,299.86576 62.892491,299.730474 63,299.594144 C160.087797,176.479046 253.249443,82.9111883 236.084921,-6.605827e-15 Z M0.641856935,300 L0,300 L0,299.594144 C0.214361822,299.730474 0.428314205,299.86576 0.641857151,300 Z" transform="rotate(90, 150, 150)" fill="#CCCCCC"></path></svg>
