<svg xmlns="http://www.w3.org/2000/svg" viewBox="0, 0, 300, 300" style=""><rect fill="#CCCCCC" x="0" y="0" width="300" height="300"></rect><path d="M247.2,154.6 L111.2,310.6 L247.2,310.6 L247.2,154.6 Z M247.2,557 L247.2,446.6 L0,446.6 L0,296.2 L254.4,0.2 L413.6,0.2 L413.6,310.6 L488.8,310.6 L488.8,446.6 L413.6,446.6 L413.6,557 L247.2,557 Z" fill="#333333" opacity="0.625" transform="translate(0, 0) rotate(120, 244.5, 278.5)"></path><circle fill="#E62B1E" opacity="1" style="mix-blend-mode:darken" cx="0" cy="150.00000000000003" r="106.5"></circle><path d="M150.248914,0 L300,0 L300,300 L149.748322,300 C149.832494,299.833893 149.916387,299.667226 150,299.5 C187.416851,224.666298 187.499816,75.1648246 150.248894,-4.02379731e-07 Z M0.751677863,300 L0,300 L0,299.5 C0.25083894,299.667226 0.501398235,299.833893 0.751677885,300 Z" transform="rotate(270, 150, 150)" fill="#333333"></path></svg>
