<svg xmlns="http://www.w3.org/2000/svg" viewBox="0, 0, 300, 300" style=""><rect fill="#CCCCCC" x="0" y="0" width="300" height="300"></rect><path d="M429.795245,0.2 L429.795245,129.8 C292.995245,256.2 260.195245,425 261.795245,557 L84.9952454,557 C83.3952454,557 89.7952454,378.6 198.595245,223.4 C251.395245,145 267.395245,136.2 266.595245,136.2 L0.195245443,136.2 L0.195245443,0.2 L429.795245,0.2 Z" fill="#333333" opacity="0.625" transform="translate(0, 0) rotate(210, 215, 278.5)"></path><circle fill="#E62B1E" opacity="1" style="mix-blend-mode:darken" cx="150" cy="0" r="112"></circle><path d="M150.248914,0 L300,0 L300,300 L149.748322,300 C149.832494,299.833893 149.916387,299.667226 150,299.5 C187.416851,224.666298 187.499816,75.1648246 150.248894,-4.02379731e-07 Z M0.751677863,300 L0,300 L0,299.5 C0.25083894,299.667226 0.501398235,299.833893 0.751677885,300 Z" transform="rotate(0, 150, 150)" fill="#333333"></path></svg>
