<svg xmlns="http://www.w3.org/2000/svg" viewBox="0, 0, 300, 300" style=""><rect fill="#CCCCCC" x="0" y="0" width="300" height="300"></rect><path d="M162.6,241.6 L12.2,241.6 C3.4,88.8 98.6,0.8 248.2,0.8 C383.4,0.8 475.4,57.6 475.4,176 C475.4,318.4 336.2,363.2 231.4,427.2 L231.4,428 L483.4,428 L483.4,564 L1,564 C-2.2,510.4 13.8,464 41,426.4 C87.4,361.6 167.4,319.2 238.6,276 C267.4,258.4 313.8,236 313.8,195.2 C313.8,144.8 284.2,127.2 246.6,127.2 C182.6,127.2 161,173.6 162.6,241.6 Z" fill="#333333" opacity="0.5893030975783652" transform="translate(0, 0) rotate(60, 242, 282)"></path><circle fill="#E62B1E" opacity="1" style="mix-blend-mode:darken" cx="300" cy="236.60254037844385" r="163.33333333333331"></circle><path d="M236.084921,-7.10542736e-15 L300,-7.10542736e-15 L300,300 L62.6762447,300 C62.7845725,299.86576 62.892491,299.730474 63,299.594144 C160.087797,176.479046 253.249443,82.9111883 236.084921,-6.605827e-15 Z M0.641856935,300 L0,300 L0,299.594144 C0.214361822,299.730474 0.428314205,299.86576 0.641857151,300 Z" transform="rotate(90, 150, 150)" fill="#EEEEEE"></path></svg>
