<svg xmlns="http://www.w3.org/2000/svg" viewBox="0, 0, 300, 300" style=""><rect fill="#CCCCCC" x="0" y="0" width="300" height="300"></rect><path d="M131.2,557 L131.2,236.2 L0.8,236.2 L0.8,121 C81.6,122.6 161.6,92.2 166.4,0.2 L297.6,0.2 L297.6,557 L131.2,557 Z" fill="#FFFFFF" opacity="0.5584888892202555" transform="translate(-100, 100) rotate(30, 149, 278.5)"></path><circle fill="#E62B1E" opacity="1" style="mix-blend-mode:darken" cx="63.39745962155618" cy="300" r="190.83333333333331"></circle><path d="M236.084921,-7.10542736e-15 L300,-7.10542736e-15 L300,300 L62.6762447,300 C62.7845725,299.86576 62.892491,299.730474 63,299.594144 C160.087797,176.479046 253.249443,82.9111883 236.084921,-6.605827e-15 Z M0.641856935,300 L0,300 L0,299.594144 C0.214361822,299.730474 0.428314205,299.86576 0.641857151,300 Z" transform="rotate(180, 150, 150)" fill="#EEEEEE"></path></svg>
