<svg xmlns="http://www.w3.org/2000/svg" viewBox="0, 0, 300, 300" style=""><rect fill="#CCCCCC" x="0" y="0" width="300" height="300"></rect><path d="M459.195245,0.2 L459.195245,136.2 L199.995245,136.2 L183.995245,209.8 L185.595245,211.4 C219.995245,185.8 265.595245,178.6 307.195245,178.6 C406.395245,178.6 488.795245,236.2 488.795245,367.4 C488.795245,480.2 399.995245,563.4 239.195245,563.4 C33.5952454,563.4 -4.00475456,437 0.795245443,381.8 L158.395245,381.8 C161.595245,396.2 169.595245,409.8 180.795245,418.6 C196.795245,431.4 219.195245,437 243.995245,437 C290.395245,437 328.795245,406.6 328.795245,362.6 C328.795245,313.8 296.795245,285 248.795245,285 C211.195245,285 184.795245,295.4 167.995245,321 L19.1952454,321 L76.7952454,0.2 L459.195245,0.2 Z" fill="#FFFFFF" opacity="0.515076844803523" transform="translate(0, 0) rotate(150, 244.5, 282)"></path><circle fill="#E62B1E" opacity="1" style="mix-blend-mode:darken" cx="0" cy="236.60254037844385" r="192.66666666666669"></circle><path d="M 0 0 L 300 0 L 0 0 Z M 300 63 L 300 300 L 0 300 L 0 236 C 70.44 250.903 176.671 160.36 300 63 Z" transform="rotate(180, 150, 150)" fill="#333333"></path></svg>
