<svg xmlns="http://www.w3.org/2000/svg" viewBox="0, 0, 300, 300" style=""><rect fill="#CCCCCC" x="0" y="0" width="300" height="300"></rect><path d="M131.2,557 L131.2,236.2 L0.8,236.2 L0.8,121 C81.6,122.6 161.6,92.2 166.4,0.2 L297.6,0.2 L297.6,557 L131.2,557 Z M286,557 L286,236.2 L155.6,236.2 L155.6,121 C236.4,122.6 316.4,92.2 321.2,0.2 L452.4,0.2 L452.4,557 L286,557 Z" fill="#333333" opacity="0.503798061746948" transform="translate(0, 0) rotate(330, 226.5, 278.5)"></path><circle fill="#E62B1E" opacity="1" style="mix-blend-mode:darken" cx="300" cy="150" r="117.5"></circle><path d="M150.248914,0 L300,0 L300,300 L149.748322,300 C149.832494,299.833893 149.916387,299.667226 150,299.5 C187.416851,224.666298 187.499816,75.1648246 150.248894,-4.02379731e-07 Z M0.751677863,300 L0,300 L0,299.5 C0.25083894,299.667226 0.501398235,299.833893 0.751677885,300 Z" transform="rotate(90, 150, 150)" fill="#333333"></path></svg>
