<svg xmlns="http://www.w3.org/2000/svg" viewBox="0, 0, 300, 300" style=""><rect fill="#CCCCCC" x="0" y="0" width="300" height="300"></rect><path d="M429.795245,0.2 L429.795245,129.8 C292.995245,256.2 260.195245,425 261.795245,557 L84.9952454,557 C83.3952454,557 89.7952454,378.6 198.595245,223.4 C251.395245,145 267.395245,136.2 266.595245,136.2 L0.195245443,136.2 L0.195245443,0.2 L429.795245,0.2 Z" fill="#333333" opacity="0.6644949641685829" transform="translate(0, 0) rotate(210, 215, 278.5)"></path><circle fill="#E62B1E" opacity="1" style="mix-blend-mode:darken" cx="0" cy="236.60254037844385" r="126.66666666666666"></circle><path d="M 0 0 L 300 0 L 0 0 Z M 300 63 L 300 300 L 0 300 L 0 236 C 70.44 250.903 176.671 160.36 300 63 Z" transform="rotate(180, 150, 150)" fill="#333333"></path></svg>
