<svg width="240" height="40" viewBox="0 0 240 40" fill="none" xmlns="http://www.w3.org/2000/svg">
<path d="M1.28 14.04L5.78 14.04C7.66 14.04 9.05333 14.64 9.96 15.84C10.8667 17.04 11.32 18.7667 11.32 21.02C11.32 23.2733 10.8667 25 9.96 26.2C9.05333 27.4 7.66 28 5.78 28L1.28 28L1.28 14.04ZM5.58 25.64C6.47333 25.64 7.12667 25.3533 7.54 24.78C7.95333 24.2067 8.16 23.3733 8.16 22.28L8.16 19.74C8.16 18.66 7.95333 17.8333 7.54 17.26C7.12667 16.6867 6.47333 16.4 5.58 16.4L4.24 16.4L4.24 25.64L5.58 25.64ZM13.5922 28L13.5922 14.04L22.5122 14.04L22.5122 16.5L16.5922 16.5L16.5922 19.7L22.3122 19.7L22.3122 22.16L16.5922 22.16L16.5922 25.54L22.5122 25.54L22.5122 28L13.5922 28ZM29.7644 28.24C28.591 28.24 27.571 28.0467 26.7044 27.66C25.8377 27.2733 25.1377 26.7467 24.6044 26.08L26.3444 24.16C26.851 24.72 27.4044 25.1333 28.0044 25.4C28.6177 25.6667 29.2377 25.8 29.8644 25.8C30.5844 25.8 31.131 25.64 31.5044 25.32C31.8777 25 32.0644 24.54 32.0644 23.94C32.0644 23.4467 31.9177 23.0733 31.6244 22.82C31.3444 22.5667 30.8644 22.3867 30.1844 22.28L28.7244 22.04C27.471 21.8267 26.5644 21.3667 26.0044 20.66C25.4444 19.94 25.1644 19.0667 25.1644 18.04C25.1644 16.6933 25.6044 15.6533 26.4844 14.92C27.3644 14.1733 28.5977 13.8 30.1844 13.8C31.2644 13.8 32.2044 13.9667 33.0044 14.3C33.8044 14.6333 34.451 15.0867 34.9444 15.66L33.2444 17.56C32.871 17.1467 32.431 16.8267 31.9244 16.6C31.4177 16.36 30.8444 16.24 30.2044 16.24C28.8577 16.24 28.1844 16.7933 28.1844 17.9C28.1844 18.38 28.331 18.74 28.6244 18.98C28.931 19.22 29.4244 19.4 30.1044 19.52L31.5644 19.78C32.6977 19.98 33.571 20.4067 34.1844 21.06C34.7977 21.7133 35.1044 22.5933 35.1044 23.7C35.1044 24.3533 34.991 24.96 34.7644 25.52C34.5377 26.0667 34.1977 26.5467 33.7444 26.96C33.291 27.36 32.731 27.6733 32.0644 27.9C31.411 28.1267 30.6444 28.24 29.7644 28.24ZM37.4766 28L37.4766 25.78L40.4766 25.78L40.4766 16.26L37.4766 16.26L37.4766 14.04L46.4766 14.04L46.4766 16.26L43.4766 16.26L43.4766 25.78L46.4766 25.78L46.4766 28L37.4766 28ZM56.1887 26.02L56.0087 26.02C55.8887 26.3133 55.7421 26.5933 55.5687 26.86C55.3954 27.1267 55.1821 27.3667 54.9287 27.58C54.6754 27.78 54.3754 27.94 54.0287 28.06C53.6954 28.18 53.3154 28.24 52.8887 28.24C52.2087 28.24 51.6021 28.08 51.0687 27.76C50.5487 27.44 50.1087 26.9733 49.7487 26.36C49.3887 25.7467 49.1154 25 48.9287 24.12C48.7554 23.24 48.6687 22.2467 48.6687 21.14C48.6687 18.7667 49.1021 16.9533 49.9687 15.7C50.8354 14.4333 52.1754 13.8 53.9887 13.8C54.7087 13.8 55.3421 13.9 55.8887 14.1C56.4354 14.2867 56.9021 14.56 57.2887 14.92C57.6887 15.2667 58.0154 15.6867 58.2688 16.18C58.5221 16.6733 58.7221 17.22 58.8687 17.82L56.0687 18.5C55.9887 18.2067 55.8954 17.9267 55.7887 17.66C55.6954 17.38 55.5687 17.1333 55.4087 16.92C55.2487 16.7067 55.0487 16.54 54.8087 16.42C54.5687 16.2867 54.2754 16.22 53.9287 16.22C53.1687 16.22 52.6287 16.5333 52.3087 17.16C52.0021 17.7867 51.8487 18.6667 51.8487 19.8L51.8487 22.08C51.8487 23.2133 52.0154 24.12 52.3487 24.8C52.6954 25.48 53.3021 25.82 54.1687 25.82C54.8487 25.82 55.3554 25.62 55.6887 25.22C56.0221 24.82 56.1887 24.3067 56.1887 23.68L56.1887 22.66L53.8087 22.66L53.8087 20.54L58.8687 20.54L58.8687 28L56.1887 28L56.1887 26.02ZM63.9609 18.72L63.7409 18.72L63.7409 28L61.1809 28L61.1809 14.04L64.7809 14.04L67.9609 23.32L68.1809 23.32L68.1809 14.04L70.7409 14.04L70.7409 28L67.1409 28L63.9609 18.72ZM90.7453 15.78C90.2386 15.78 89.8853 15.6867 89.6853 15.5C89.4853 15.3 89.3853 15.0667 89.3853 14.8C89.3853 14.72 89.392 14.6267 89.4053 14.52C89.4186 14.4133 89.4386 14.3 89.4653 14.18C89.532 13.82 89.6786 13.54 89.9053 13.34C90.1453 13.1267 90.5186 13.02 91.0253 13.02C91.532 13.02 91.8853 13.12 92.0853 13.32C92.2853 13.5067 92.3853 13.7333 92.3853 14C92.3853 14.08 92.3786 14.1733 92.3653 14.28C92.352 14.3867 92.332 14.5 92.3053 14.62C92.2386 14.98 92.0853 15.2667 91.8453 15.48C91.6186 15.68 91.252 15.78 90.7453 15.78ZM89.5853 28.24C88.9453 28.24 88.4653 28.0733 88.1453 27.74C87.8253 27.4067 87.6653 26.9733 87.6653 26.44C87.6653 26.2667 87.6786 26.0933 87.7053 25.92C87.732 25.7467 87.7653 25.54 87.8053 25.3L88.9453 19.42L85.4653 19.42L85.7453 17.68L91.4053 17.68L89.7253 26.34L90.1253 26.5L93.5853 23.32L94.8053 24.42L93.2453 25.98C92.832 26.3933 92.4586 26.7467 92.1253 27.04C91.792 27.32 91.4853 27.5533 91.2053 27.74C90.9253 27.9133 90.652 28.04 90.3853 28.12C90.132 28.2 89.8653 28.24 89.5853 28.24ZM101.217 28.24C100.204 28.24 99.3242 28.0867 98.5775 27.78C97.8308 27.46 97.2508 27 96.8375 26.4L98.1975 25.2C98.9308 26.1333 99.9908 26.6 101.377 26.6C102.164 26.6 102.777 26.46 103.217 26.18C103.671 25.9 103.897 25.5 103.897 24.98C103.897 24.58 103.771 24.3067 103.517 24.16C103.277 24 102.971 23.8867 102.597 23.82L101.097 23.56C100.711 23.4933 100.337 23.4 99.9775 23.28C99.6308 23.16 99.3242 23 99.0575 22.8C98.7908 22.5867 98.5708 22.32 98.3975 22C98.2375 21.68 98.1575 21.2867 98.1575 20.82C98.1575 20.26 98.2708 19.7733 98.4975 19.36C98.7375 18.9333 99.0575 18.58 99.4575 18.3C99.8708 18.0067 100.351 17.7933 100.897 17.66C101.444 17.5133 102.037 17.44 102.677 17.44C103.597 17.44 104.391 17.58 105.057 17.86C105.737 18.1267 106.271 18.4933 106.657 18.96L105.337 20.22C105.137 19.94 104.811 19.68 104.357 19.44C103.904 19.2 103.304 19.08 102.557 19.08C101.811 19.08 101.237 19.2133 100.837 19.48C100.451 19.7467 100.257 20.12 100.257 20.6C100.257 21.0133 100.384 21.2933 100.637 21.44C100.904 21.5867 101.224 21.6933 101.597 21.76L103.097 22.04C103.471 22.1067 103.831 22.2 104.177 22.32C104.524 22.4267 104.831 22.58 105.097 22.78C105.377 22.9667 105.597 23.22 105.757 23.54C105.931 23.8467 106.017 24.2333 106.017 24.7C106.017 25.2467 105.904 25.74 105.677 26.18C105.451 26.62 105.124 26.9933 104.697 27.3C104.284 27.6067 103.777 27.84 103.177 28C102.591 28.16 101.937 28.24 101.217 28.24ZM126.242 28.24C124.375 28.24 122.989 27.6133 122.082 26.36C121.189 25.0933 120.742 23.3133 120.742 21.02C120.742 18.7267 121.189 16.9533 122.082 15.7C122.989 14.4333 124.375 13.8 126.242 13.8C126.962 13.8 127.595 13.9 128.142 14.1C128.702 14.2867 129.182 14.5533 129.582 14.9C129.982 15.2467 130.309 15.6667 130.562 16.16C130.829 16.6533 131.035 17.2067 131.182 17.82L128.382 18.5C128.302 18.1667 128.209 17.86 128.102 17.58C127.995 17.3 127.855 17.06 127.682 16.86C127.522 16.66 127.315 16.5067 127.062 16.4C126.822 16.28 126.529 16.22 126.182 16.22C125.369 16.22 124.789 16.54 124.442 17.18C124.109 17.8067 123.942 18.68 123.942 19.8L123.942 22.24C123.942 23.36 124.109 24.24 124.442 24.88C124.789 25.5067 125.369 25.82 126.182 25.82C126.875 25.82 127.375 25.6067 127.682 25.18C128.002 24.7533 128.235 24.2067 128.382 23.54L131.182 24.22C131.035 24.8333 130.829 25.3867 130.562 25.88C130.309 26.3733 129.982 26.8 129.582 27.16C129.182 27.5067 128.702 27.7733 128.142 27.96C127.595 28.1467 126.962 28.24 126.242 28.24ZM139.674 22.16L136.154 22.16L136.154 28L133.134 28L133.134 14.04L136.154 14.04L136.154 19.7L139.674 19.7L139.674 14.04L142.694 14.04L142.694 28L139.674 28L139.674 22.16ZM149.906 28.24C148.04 28.24 146.66 27.6067 145.766 26.34C144.886 25.0733 144.446 23.3 144.446 21.02C144.446 18.74 144.886 16.9667 145.766 15.7C146.66 14.4333 148.04 13.8 149.906 13.8C151.773 13.8 153.146 14.4333 154.026 15.7C154.92 16.9667 155.366 18.74 155.366 21.02C155.366 23.3 154.92 25.0733 154.026 26.34C153.146 27.6067 151.773 28.24 149.906 28.24ZM149.906 25.82C150.76 25.82 151.346 25.5067 151.666 24.88C152 24.24 152.166 23.3533 152.166 22.22L152.166 19.8C152.166 18.68 152 17.8067 151.666 17.18C151.346 16.54 150.76 16.22 149.906 16.22C149.053 16.22 148.46 16.54 148.126 17.18C147.806 17.8067 147.646 18.68 147.646 19.8L147.646 22.24C147.646 23.36 147.806 24.24 148.126 24.88C148.46 25.5067 149.053 25.82 149.906 25.82ZM157.398 28L157.398 25.78L160.398 25.78L160.398 16.26L157.398 16.26L157.398 14.04L166.398 14.04L166.398 16.26L163.398 16.26L163.398 25.78L166.398 25.78L166.398 28L157.398 28ZM174.211 28.24C172.344 28.24 170.957 27.6133 170.051 26.36C169.157 25.0933 168.711 23.3133 168.711 21.02C168.711 18.7267 169.157 16.9533 170.051 15.7C170.957 14.4333 172.344 13.8 174.211 13.8C174.931 13.8 175.564 13.9 176.111 14.1C176.671 14.2867 177.151 14.5533 177.551 14.9C177.951 15.2467 178.277 15.6667 178.531 16.16C178.797 16.6533 179.004 17.2067 179.151 17.82L176.351 18.5C176.271 18.1667 176.177 17.86 176.071 17.58C175.964 17.3 175.824 17.06 175.651 16.86C175.491 16.66 175.284 16.5067 175.031 16.4C174.791 16.28 174.497 16.22 174.151 16.22C173.337 16.22 172.757 16.54 172.411 17.18C172.077 17.8067 171.911 18.68 171.911 19.8L171.911 22.24C171.911 23.36 172.077 24.24 172.411 24.88C172.757 25.5067 173.337 25.82 174.151 25.82C174.844 25.82 175.344 25.6067 175.651 25.18C175.971 24.7533 176.204 24.2067 176.351 23.54L179.151 24.22C179.004 24.8333 178.797 25.3867 178.531 25.88C178.277 26.3733 177.951 26.8 177.551 27.16C177.151 27.5067 176.671 27.7733 176.111 27.96C175.564 28.1467 174.931 28.24 174.211 28.24ZM181.483 28L181.483 14.04L190.403 14.04L190.403 16.5L184.483 16.5L184.483 19.7L190.203 19.7L190.203 22.16L184.483 22.16L184.483 25.54L190.403 25.54L190.403 28L181.483 28ZM210.667 15.78C210.161 15.78 209.807 15.6867 209.607 15.5C209.407 15.3 209.307 15.0667 209.307 14.8C209.307 14.72 209.314 14.6267 209.327 14.52C209.341 14.4133 209.361 14.3 209.387 14.18C209.454 13.82 209.601 13.54 209.827 13.34C210.067 13.1267 210.441 13.02 210.947 13.02C211.454 13.02 211.807 13.12 212.007 13.32C212.207 13.5067 212.307 13.7333 212.307 14C212.307 14.08 212.301 14.1733 212.287 14.28C212.274 14.3867 212.254 14.5 212.227 14.62C212.161 14.98 212.007 15.2667 211.767 15.48C211.541 15.68 211.174 15.78 210.667 15.78ZM209.507 28.24C208.867 28.24 208.387 28.0733 208.067 27.74C207.747 27.4067 207.587 26.9733 207.587 26.44C207.587 26.2667 207.601 26.0933 207.627 25.92C207.654 25.7467 207.687 25.54 207.727 25.3L208.867 19.42L205.387 19.42L205.667 17.68L211.327 17.68L209.647 26.34L210.047 26.5L213.507 23.32L214.727 24.42L213.167 25.98C212.754 26.3933 212.381 26.7467 212.047 27.04C211.714 27.32 211.407 27.5533 211.127 27.74C210.847 27.9133 210.574 28.04 210.307 28.12C210.054 28.2 209.787 28.24 209.507 28.24ZM221.139 28.24C220.126 28.24 219.246 28.0867 218.499 27.78C217.753 27.46 217.173 27 216.759 26.4L218.119 25.2C218.853 26.1333 219.913 26.6 221.299 26.6C222.086 26.6 222.699 26.46 223.139 26.18C223.593 25.9 223.819 25.5 223.819 24.98C223.819 24.58 223.693 24.3067 223.439 24.16C223.199 24 222.893 23.8867 222.519 23.82L221.019 23.56C220.633 23.4933 220.259 23.4 219.899 23.28C219.553 23.16 219.246 23 218.979 22.8C218.713 22.5867 218.493 22.32 218.319 22C218.159 21.68 218.079 21.2867 218.079 20.82C218.079 20.26 218.193 19.7733 218.419 19.36C218.659 18.9333 218.979 18.58 219.379 18.3C219.793 18.0067 220.273 17.7933 220.819 17.66C221.366 17.5133 221.959 17.44 222.599 17.44C223.519 17.44 224.313 17.58 224.979 17.86C225.659 18.1267 226.193 18.4933 226.579 18.96L225.259 20.22C225.059 19.94 224.733 19.68 224.279 19.44C223.826 19.2 223.226 19.08 222.479 19.08C221.733 19.08 221.159 19.2133 220.759 19.48C220.373 19.7467 220.179 20.12 220.179 20.6C220.179 21.0133 220.306 21.2933 220.559 21.44C220.826 21.5867 221.146 21.6933 221.519 21.76L223.019 22.04C223.393 22.1067 223.753 22.2 224.099 22.32C224.446 22.4267 224.753 22.58 225.019 22.78C225.299 22.9667 225.519 23.22 225.679 23.54C225.853 23.8467 225.939 24.2333 225.939 24.7C225.939 25.2467 225.826 25.74 225.599 26.18C225.373 26.62 225.046 26.9933 224.619 27.3C224.206 27.6067 223.699 27.84 223.099 28C222.513 28.16 221.859 28.24 221.139 28.24Z" fill="black"/>
</svg>
