<svg width="40" height="240" viewBox="0 0 40 240" fill="none" xmlns="http://www.w3.org/2000/svg">
<path d="M25.96 1.28L25.96 5.78C25.96 7.66 25.36 9.05333 24.16 9.96C22.96 10.8667 21.2333 11.32 18.98 11.32C16.7267 11.32 15 10.8667 13.8 9.96C12.6 9.05333 12 7.66 12 5.78L12 1.28L25.96 1.28ZM14.36 5.58C14.36 6.47333 14.6467 7.12667 15.22 7.54C15.7933 7.95333 16.6267 8.16 17.72 8.16L20.26 8.16C21.34 8.16 22.1667 7.95333 22.74 7.54C23.3133 7.12667 23.6 6.47333 23.6 5.58L23.6 4.24L14.36 4.24L14.36 5.58ZM12 13.5922L25.96 13.5922L25.96 22.5122L23.5 22.5122L23.5 16.5922L20.3 16.5922L20.3 22.3122L17.84 22.3122L17.84 16.5922L14.46 16.5922L14.46 22.5122L12 22.5122L12 13.5922ZM11.76 29.7644C11.76 28.591 11.9533 27.571 12.34 26.7044C12.7267 25.8377 13.2533 25.1377 13.92 24.6044L15.84 26.3444C15.28 26.851 14.8667 27.4044 14.6 28.0044C14.3333 28.6177 14.2 29.2377 14.2 29.8644C14.2 30.5844 14.36 31.131 14.68 31.5044C15 31.8777 15.46 32.0644 16.06 32.0644C16.5533 32.0644 16.9267 31.9177 17.18 31.6244C17.4333 31.3444 17.6133 30.8644 17.72 30.1844L17.96 28.7244C18.1733 27.471 18.6333 26.5644 19.34 26.0044C20.06 25.4444 20.9333 25.1644 21.96 25.1644C23.3067 25.1644 24.3467 25.6044 25.08 26.4844C25.8267 27.3644 26.2 28.5977 26.2 30.1844C26.2 31.2644 26.0333 32.2044 25.7 33.0044C25.3667 33.8044 24.9133 34.451 24.34 34.9444L22.44 33.2444C22.8533 32.871 23.1733 32.431 23.4 31.9244C23.64 31.4177 23.76 30.8444 23.76 30.2044C23.76 28.8577 23.2067 28.1844 22.1 28.1844C21.62 28.1844 21.26 28.331 21.02 28.6244C20.78 28.931 20.6 29.4244 20.48 30.1044L20.22 31.5644C20.02 32.6977 19.5933 33.571 18.94 34.1844C18.2867 34.7977 17.4067 35.1044 16.3 35.1044C15.6467 35.1044 15.04 34.991 14.48 34.7644C13.9333 34.5377 13.4533 34.1977 13.04 33.7444C12.64 33.291 12.3267 32.731 12.1 32.0644C11.8733 31.411 11.76 30.6444 11.76 29.7644ZM12 37.4766L14.22 37.4766L14.22 40.4766L23.74 40.4766L23.74 37.4766L25.96 37.4766L25.96 46.4766L23.74 46.4766L23.74 43.4766L14.22 43.4766L14.22 46.4766L12 46.4766L12 37.4766ZM13.98 56.1887L13.98 56.0087C13.6867 55.8887 13.4067 55.7421 13.14 55.5687C12.8733 55.3954 12.6333 55.1821 12.42 54.9287C12.22 54.6754 12.06 54.3754 11.94 54.0287C11.82 53.6954 11.76 53.3154 11.76 52.8887C11.76 52.2087 11.92 51.6021 12.24 51.0687C12.56 50.5487 13.0267 50.1087 13.64 49.7487C14.2533 49.3887 15 49.1154 15.88 48.9287C16.76 48.7554 17.7533 48.6687 18.86 48.6687C21.2333 48.6687 23.0467 49.1021 24.3 49.9687C25.5667 50.8354 26.2 52.1754 26.2 53.9887C26.2 54.7087 26.1 55.3421 25.9 55.8887C25.7133 56.4354 25.44 56.9021 25.08 57.2887C24.7333 57.6887 24.3133 58.0154 23.82 58.2688C23.3267 58.5221 22.78 58.7221 22.18 58.8687L21.5 56.0687C21.7933 55.9887 22.0733 55.8954 22.34 55.7887C22.62 55.6954 22.8667 55.5687 23.08 55.4087C23.2933 55.2487 23.46 55.0487 23.58 54.8087C23.7133 54.5687 23.78 54.2754 23.78 53.9287C23.78 53.1687 23.4667 52.6287 22.84 52.3087C22.2133 52.0021 21.3333 51.8487 20.2 51.8487L17.92 51.8487C16.7867 51.8487 15.88 52.0154 15.2 52.3487C14.52 52.6954 14.18 53.3021 14.18 54.1687C14.18 54.8487 14.38 55.3554 14.78 55.6887C15.18 56.0221 15.6933 56.1887 16.32 56.1887L17.34 56.1887L17.34 53.8087L19.46 53.8087L19.46 58.8687L12 58.8687L12 56.1887L13.98 56.1887ZM21.28 63.9609L21.28 63.7409L12 63.7409L12 61.1809L25.96 61.1809L25.96 64.7809L16.68 67.9609L16.68 68.1809L25.96 68.1809L25.96 70.7409L12 70.7409L12 67.1409L21.28 63.9609ZM24.22 90.7453C24.22 90.2386 24.3133 89.8853 24.5 89.6853C24.7 89.4853 24.9333 89.3853 25.2 89.3853C25.28 89.3853 25.3733 89.392 25.48 89.4053C25.5867 89.4186 25.7 89.4386 25.82 89.4653C26.18 89.532 26.46 89.6786 26.66 89.9053C26.8733 90.1453 26.98 90.5186 26.98 91.0253C26.98 91.532 26.88 91.8853 26.68 92.0853C26.4933 92.2853 26.2667 92.3853 26 92.3853C25.92 92.3853 25.8267 92.3786 25.72 92.3653C25.6133 92.352 25.5 92.332 25.38 92.3053C25.02 92.2386 24.7333 92.0853 24.52 91.8453C24.32 91.6186 24.22 91.252 24.22 90.7453ZM11.76 89.5853C11.76 88.9453 11.9267 88.4653 12.26 88.1453C12.5933 87.8253 13.0267 87.6653 13.56 87.6653C13.7333 87.6653 13.9067 87.6786 14.08 87.7053C14.2533 87.732 14.46 87.7653 14.7 87.8053L20.58 88.9453L20.58 85.4653L22.32 85.7453L22.32 91.4053L13.66 89.7253L13.5 90.1253L16.68 93.5853L15.58 94.8053L14.02 93.2453C13.6067 92.832 13.2533 92.4586 12.96 92.1253C12.68 91.792 12.4467 91.4853 12.26 91.2053C12.0867 90.9253 11.96 90.652 11.88 90.3853C11.8 90.132 11.76 89.8653 11.76 89.5853ZM11.76 101.217C11.76 100.204 11.9133 99.3242 12.22 98.5775C12.54 97.8308 13 97.2508 13.6 96.8375L14.8 98.1975C13.8667 98.9308 13.4 99.9908 13.4 101.377C13.4 102.164 13.54 102.777 13.82 103.217C14.1 103.671 14.5 103.897 15.02 103.897C15.42 103.897 15.6933 103.771 15.84 103.517C16 103.277 16.1133 102.971 16.18 102.597L16.44 101.097C16.5067 100.711 16.6 100.337 16.72 99.9775C16.84 99.6308 17 99.3242 17.2 99.0575C17.4133 98.7908 17.68 98.5708 18 98.3975C18.32 98.2375 18.7133 98.1575 19.18 98.1575C19.74 98.1575 20.2267 98.2708 20.64 98.4975C21.0667 98.7375 21.42 99.0575 21.7 99.4575C21.9933 99.8708 22.2067 100.351 22.34 100.897C22.4867 101.444 22.56 102.037 22.56 102.677C22.56 103.597 22.42 104.391 22.14 105.057C21.8733 105.737 21.5067 106.271 21.04 106.657L19.78 105.337C20.06 105.137 20.32 104.811 20.56 104.357C20.8 103.904 20.92 103.304 20.92 102.557C20.92 101.811 20.7867 101.237 20.52 100.837C20.2533 100.451 19.88 100.257 19.4 100.257C18.9867 100.257 18.7067 100.384 18.56 100.637C18.4133 100.904 18.3067 101.224 18.24 101.597L17.96 103.097C17.8933 103.471 17.8 103.831 17.68 104.177C17.5733 104.524 17.42 104.831 17.22 105.097C17.0333 105.377 16.78 105.597 16.46 105.757C16.1533 105.931 15.7667 106.017 15.3 106.017C14.7533 106.017 14.26 105.904 13.82 105.677C13.38 105.451 13.0067 105.124 12.7 104.697C12.3933 104.284 12.16 103.777 12 103.177C11.84 102.591 11.76 101.937 11.76 101.217ZM11.76 126.242C11.76 124.375 12.3867 122.989 13.64 122.082C14.9067 121.189 16.6867 120.742 18.98 120.742C21.2733 120.742 23.0467 121.189 24.3 122.082C25.5667 122.989 26.2 124.375 26.2 126.242C26.2 126.962 26.1 127.595 25.9 128.142C25.7133 128.702 25.4467 129.182 25.1 129.582C24.7533 129.982 24.3333 130.309 23.84 130.562C23.3467 130.829 22.7933 131.035 22.18 131.182L21.5 128.382C21.8333 128.302 22.14 128.209 22.42 128.102C22.7 127.995 22.94 127.855 23.14 127.682C23.34 127.522 23.4933 127.315 23.6 127.062C23.72 126.822 23.78 126.529 23.78 126.182C23.78 125.369 23.46 124.789 22.82 124.442C22.1933 124.109 21.32 123.942 20.2 123.942L17.76 123.942C16.64 123.942 15.76 124.109 15.12 124.442C14.4933 124.789 14.18 125.369 14.18 126.182C14.18 126.875 14.3933 127.375 14.82 127.682C15.2467 128.002 15.7933 128.235 16.46 128.382L15.78 131.182C15.1667 131.035 14.6133 130.829 14.12 130.562C13.6267 130.309 13.2 129.982 12.84 129.582C12.4933 129.182 12.2267 128.702 12.04 128.142C11.8533 127.595 11.76 126.962 11.76 126.242ZM17.84 139.674L17.84 136.154L12 136.154L12 133.134L25.96 133.134L25.96 136.154L20.3 136.154L20.3 139.674L25.96 139.674L25.96 142.694L12 142.694L12 139.674L17.84 139.674ZM11.76 149.906C11.76 148.04 12.3933 146.66 13.66 145.766C14.9267 144.886 16.7 144.446 18.98 144.446C21.26 144.446 23.0333 144.886 24.3 145.766C25.5667 146.66 26.2 148.04 26.2 149.906C26.2 151.773 25.5667 153.146 24.3 154.026C23.0333 154.92 21.26 155.366 18.98 155.366C16.7 155.366 14.9267 154.92 13.66 154.026C12.3933 153.146 11.76 151.773 11.76 149.906ZM14.18 149.906C14.18 150.76 14.4933 151.346 15.12 151.666C15.76 152 16.6467 152.166 17.78 152.166L20.2 152.166C21.32 152.166 22.1933 152 22.82 151.666C23.46 151.346 23.78 150.76 23.78 149.906C23.78 149.053 23.46 148.46 22.82 148.126C22.1933 147.806 21.32 147.646 20.2 147.646L17.76 147.646C16.64 147.646 15.76 147.806 15.12 148.126C14.4933 148.46 14.18 149.053 14.18 149.906ZM12 157.398L14.22 157.398L14.22 160.398L23.74 160.398L23.74 157.398L25.96 157.398L25.96 166.398L23.74 166.398L23.74 163.398L14.22 163.398L14.22 166.398L12 166.398L12 157.398ZM11.76 174.211C11.76 172.344 12.3867 170.957 13.64 170.051C14.9067 169.157 16.6867 168.711 18.98 168.711C21.2733 168.711 23.0467 169.157 24.3 170.051C25.5667 170.957 26.2 172.344 26.2 174.211C26.2 174.931 26.1 175.564 25.9 176.111C25.7133 176.671 25.4467 177.151 25.1 177.551C24.7533 177.951 24.3333 178.277 23.84 178.531C23.3467 178.797 22.7933 179.004 22.18 179.151L21.5 176.351C21.8333 176.271 22.14 176.177 22.42 176.071C22.7 175.964 22.94 175.824 23.14 175.651C23.34 175.491 23.4933 175.284 23.6 175.031C23.72 174.791 23.78 174.497 23.78 174.151C23.78 173.337 23.46 172.757 22.82 172.411C22.1933 172.077 21.32 171.911 20.2 171.911L17.76 171.911C16.64 171.911 15.76 172.077 15.12 172.411C14.4933 172.757 14.18 173.337 14.18 174.151C14.18 174.844 14.3933 175.344 14.82 175.651C15.2467 175.971 15.7933 176.204 16.46 176.351L15.78 179.151C15.1667 179.004 14.6133 178.797 14.12 178.531C13.6267 178.277 13.2 177.951 12.84 177.551C12.4933 177.151 12.2267 176.671 12.04 176.111C11.8533 175.564 11.76 174.931 11.76 174.211ZM12 181.483L25.96 181.483L25.96 190.403L23.5 190.403L23.5 184.483L20.3 184.483L20.3 190.203L17.84 190.203L17.84 184.483L14.46 184.483L14.46 190.403L12 190.403L12 181.483ZM24.22 210.667C24.22 210.161 24.3133 209.807 24.5 209.607C24.7 209.407 24.9333 209.307 25.2 209.307C25.28 209.307 25.3733 209.314 25.48 209.327C25.5867 209.341 25.7 209.361 25.82 209.387C26.18 209.454 26.46 209.601 26.66 209.827C26.8733 210.067 26.98 210.441 26.98 210.947C26.98 211.454 26.88 211.807 26.68 212.007C26.4933 212.207 26.2667 212.307 26 212.307C25.92 212.307 25.8267 212.301 25.72 212.287C25.6133 212.274 25.5 212.254 25.38 212.227C25.02 212.161 24.7333 212.007 24.52 211.767C24.32 211.541 24.22 211.174 24.22 210.667ZM11.76 209.507C11.76 208.867 11.9267 208.387 12.26 208.067C12.5933 207.747 13.0267 207.587 13.56 207.587C13.7333 207.587 13.9067 207.601 14.08 207.627C14.2533 207.654 14.46 207.687 14.7 207.727L20.58 208.867L20.58 205.387L22.32 205.667L22.32 211.327L13.66 209.647L13.5 210.047L16.68 213.507L15.58 214.727L14.02 213.167C13.6067 212.754 13.2533 212.381 12.96 212.047C12.68 211.714 12.4467 211.407 12.26 211.127C12.0867 210.847 11.96 210.574 11.88 210.307C11.8 210.054 11.76 209.787 11.76 209.507ZM11.76 221.139C11.76 220.126 11.9133 219.246 12.22 218.499C12.54 217.753 13 217.173 13.6 216.759L14.8 218.119C13.8667 218.853 13.4 219.913 13.4 221.299C13.4 222.086 13.54 222.699 13.82 223.139C14.1 223.593 14.5 223.819 15.02 223.819C15.42 223.819 15.6933 223.693 15.84 223.439C16 223.199 16.1133 222.893 16.18 222.519L16.44 221.019C16.5067 220.633 16.6 220.259 16.72 219.899C16.84 219.553 17 219.246 17.2 218.979C17.4133 218.713 17.68 218.493 18 218.319C18.32 218.159 18.7133 218.079 19.18 218.079C19.74 218.079 20.2267 218.193 20.64 218.419C21.0667 218.659 21.42 218.979 21.7 219.379C21.9933 219.793 22.2067 220.273 22.34 220.819C22.4867 221.366 22.56 221.959 22.56 222.599C22.56 223.519 22.42 224.313 22.14 224.979C21.8733 225.659 21.5067 226.193 21.04 226.579L19.78 225.259C20.06 225.059 20.32 224.733 20.56 224.279C20.8 223.826 20.92 223.226 20.92 222.479C20.92 221.733 20.7867 221.159 20.52 220.759C20.2533 220.373 19.88 220.179 19.4 220.179C18.9867 220.179 18.7067 220.306 18.56 220.559C18.4133 220.826 18.3067 221.146 18.24 221.519L17.96 223.019C17.8933 223.393 17.8 223.753 17.68 224.099C17.5733 224.446 17.42 224.753 17.22 225.019C17.0333 225.299 16.78 225.519 16.46 225.679C16.1533 225.853 15.7667 225.939 15.3 225.939C14.7533 225.939 14.26 225.826 13.82 225.599C13.38 225.373 13.0067 225.046 12.7 224.619C12.3933 224.206 12.16 223.699 12 223.099C11.84 222.513 11.76 221.859 11.76 221.139Z" fill="black"/>
</svg>
