<svg width="30" height="30" viewBox="0 0 30 30" fill="none" xmlns="http://www.w3.org/2000/svg">
<path d="M15 3.09375C18.8906 3.09375 19.3594 3.09375 20.8594 3.1875C22.2656 3.23438 23.0625 3.46875 23.5781 3.70312C24.2344 3.98438 24.75 4.26562 25.2656 4.78125C25.7812 5.29688 26.1094 5.76562 26.3438 6.46875C26.5312 6.98438 26.7656 7.73438 26.8594 9.1875C26.9062 10.7344 26.9531 11.1562 26.9531 15.0469C26.9531 18.9375 26.9531 19.4062 26.8594 20.9062C26.8125 22.3125 26.5781 23.1094 26.3438 23.625C26.0625 24.2812 25.7812 24.7969 25.2656 25.3125C24.75 25.8281 24.2812 26.1562 23.5781 26.3906C23.0625 26.5781 22.3125 26.8125 20.8594 26.9062C19.3125 26.9531 18.8906 27 15 27C11.1094 27 10.6406 27 9.14062 26.9062C7.73438 26.8594 6.9375 26.625 6.42188 26.3906C5.76562 26.1094 5.25 25.8281 4.73438 25.3125C4.21875 24.7969 3.89062 24.3281 3.65625 23.625C3.46875 23.1094 3.23438 22.3594 3.14062 20.9062C3.09375 19.3594 3.09375 18.8906 3.09375 15C3.09375 11.1094 3.09375 10.6406 3.1875 9.14062C3.23438 7.73438 3.46875 6.9375 3.70312 6.42188C3.98438 5.76562 4.26562 5.25 4.78125 4.73438C5.29688 4.21875 5.76562 3.89062 6.46875 3.65625C6.98438 3.46875 7.73438 3.23438 9.1875 3.14062C10.6406 3.09375 11.1094 3.09375 15 3.09375ZM15 0.46875C11.0625 0.46875 10.5469 0.46875 9 0.5625C7.45313 0.65625 6.375 0.890625 5.48438 1.21875C4.54688 1.59375 3.70312 2.10937 2.90625 2.90625C2.10937 3.70312 1.59375 4.54688 1.21875 5.48438C0.84375 6.42188 0.609375 7.45313 0.5625 9C0.46875 10.5469 0.46875 11.0625 0.46875 15C0.46875 18.9375 0.46875 19.4531 0.5625 21C0.65625 22.5469 0.890625 23.625 1.21875 24.5156C1.59375 25.4531 2.10937 26.2969 2.90625 27.0938C3.70312 27.8906 4.54688 28.4062 5.48438 28.7812C6.42188 29.1562 7.45313 29.3906 9 29.4375C10.5469 29.5312 11.0625 29.5312 15 29.5312C18.9375 29.5312 19.4531 29.5312 21 29.4375C22.5469 29.3438 23.625 29.1094 24.5156 28.7812C25.4531 28.4062 26.2969 27.8906 27.0938 27.0938C27.8906 26.2969 28.4062 25.4531 28.7812 24.5156C29.1562 23.5781 29.3906 22.5469 29.4375 21C29.5312 19.4531 29.5312 18.9375 29.5312 15C29.5312 11.0625 29.5312 10.5469 29.4375 9C29.3438 7.45313 29.1094 6.375 28.7812 5.48438C28.4062 4.54688 27.8906 3.70312 27.0938 2.90625C26.2969 2.10937 25.4531 1.59375 24.5156 1.21875C23.5781 0.84375 22.5469 0.609375 21 0.5625C19.4531 0.46875 18.9375 0.46875 15 0.46875Z" fill="white"/>
<path d="M15 7.54688C10.875 7.54688 7.54688 10.875 7.54688 15C7.54688 19.125 10.875 22.4531 15 22.4531C19.125 22.4531 22.4531 19.125 22.4531 15C22.4531 10.875 19.125 7.54688 15 7.54688ZM15 19.8281C12.3281 19.8281 10.1719 17.6719 10.1719 15C10.1719 12.3281 12.3281 10.1719 15 10.1719C17.6719 10.1719 19.8281 12.3281 19.8281 15C19.8281 17.6719 17.6719 19.8281 15 19.8281Z" fill="white"/>
<path d="M22.7344 9C23.6922 9 24.4688 8.22349 24.4688 7.26562C24.4688 6.30776 23.6922 5.53125 22.7344 5.53125C21.7765 5.53125 21 6.30776 21 7.26562C21 8.22349 21.7765 9 22.7344 9Z" fill="white"/>
</svg>
